<svg version="1.1" id="Layer_1" xmlns="http://www.w3.org/2000/svg" xmlns:xlink="http://www.w3.org/1999/xlink" x="0px" y="0px" viewBox="0 0 512 512" style="enable-background:new 0 0 512 512;" xml:space="preserve">
<title>Probability-businessanalysis-dice-possible-dicethrowing</title>
<path d="M472,344h-56c-11.9,0-22,8.8-23.7,20.5l-50.3-18.9l-23.4-52.6c-5.7-12.8-18.4-21.1-32.4-21.1c-19.6,0-35.5,15.9-35.5,35.5
	c0,3.8,0.6,7.6,1.8,11.2l17,50.9l-18.6,3.1l-24.6-44.2c-8.4-15.2-25.7-23.3-42.8-19.8l-13.6,2.7c-7.6-3.9-16.3-5.2-24.7-3.8
	l-22.2,3.7c-7.8-3.7-16.6-4.8-25.1-3.1L79.3,312c-12.9-11.8-33-11-44.8,1.9c-10,10.9-11.1,27.4-2.7,39.6
	C49.4,378.7,78,420,86.3,432.1c3,4.4,7.4,7.6,12.5,9.2l167.5,53.3c2.4,0.7,4.8,1.1,7.3,1.1c1,0,2-0.1,3-0.2l117.2-14.7
	c3.6,9.1,12.5,15.1,22.3,15.1h56c13.2,0,24-10.8,24-24V368C496,354.8,485.2,344.1,472,344z M212.4,336.3l21.8,39.2l-17,2.8
	l-31.1-51.8c-0.4-0.6-0.8-1.2-1.1-1.8l1.7-0.3C196.9,322.4,207.3,327.2,212.4,336.3z M147.8,323.5c9.7-1.7,19.5,2.8,24.5,11.3
	l27.8,46.4l-19.7,3.3L138.8,325L147.8,323.5z M101.1,324c9.3-1.9,18.9,2,24.4,9.8l37.6,53.7l-9.1,1.5c-8.8,1.5-17.8-2.1-23.1-9.3
	l-40.2-53.6L101.1,324z M274.5,479.7c-1.1,0.1-2.3,0-3.4-0.3l-167.5-53.3c-1.7-0.5-3.1-1.6-4.2-3.1c-8.4-12.1-37-53.4-54.5-78.6
	c-5-7.1-3.2-16.9,3.9-21.9c6.9-4.8,16.5-3.3,21.6,3.4l47.5,63.3c8.9,12,23.8,17.9,38.6,15.5L209,396l0.1,0.2l0.4-0.3l66.6-11.1
	l29.1,43.7l13.3-8.9l-31.4-47.1l-19.6-58.8c-3.4-10.2,2.1-21.2,12.3-24.7c2-0.7,4.1-1,6.2-1c7.7,0,14.7,4.5,17.8,11.6l26.1,58.7
	l61.9,23.2V465L274.5,479.7z M480,472c0,4.4-3.6,8-8,8h-56c-4.4,0-8-3.6-8-8V368c0-4.4,3.6-8,8-8h16v64h16v-64h24c4.4,0,8,3.6,8,8
	V472z" id="id_101" style="fill: rgb(255, 255, 255);"></path>
<rect x="432" y="440" width="16" height="24" id="id_102" style="fill: rgb(252, 252, 252);"></rect>
<rect x="16" y="392" width="16" height="56" id="id_103" style="fill: rgb(255, 255, 255);"></rect>
<rect x="48" y="432" width="16" height="40" id="id_104" style="fill: rgb(247, 254, 255);"></rect>
<rect x="80" y="464" width="16" height="32" id="id_105" style="fill: rgb(255, 255, 255);"></rect>
<path d="M316.9,238.4c4.5,5.4,11.2,8.5,18.2,8.5c1.2,0,2.4-0.1,3.6-0.3l99.6-15c8.6-1.3,15.8-7.1,18.9-15.3l34.2-91
	c3.1-8.1,1.5-17.3-4.2-24l-65.1-76.9c-5.4-6.4-13.7-9.5-21.9-8.2l-99.6,15c-8.6,1.3-15.8,7.2-18.9,15.3l-34.2,91
	c-3.1,8.1-1.5,17.3,4.2,24L316.9,238.4z M442.3,210.7c-1,2.7-3.4,4.7-6.3,5.1l-95,14.3l35.2-93.7c0.1,0,0.3,0,0.4,0
	c1.2,0,2.4-0.1,3.6-0.3l95.5-14.4L442.3,210.7z M402.7,32.1c0.4-0.1,0.8-0.1,1.2-0.1c2.3,0,4.6,1,6.1,2.8l60.6,71.5l-92.7,14
	c-2.7,0.4-5.5-0.6-7.3-2.7L310,46.1L402.7,32.1z M262.6,143.2L296,54.3l62.4,73.7c0.9,1,1.8,2,2.9,2.9l-35.2,93.7L264,151.2
	C262.1,149,261.6,145.9,262.6,143.2z" id="id_106" style="fill: rgb(252, 252, 252);"></path>
<rect x="390.3" y="47" transform="matrix(0.3516 -0.9362 0.9362 0.3516 206.7786 408.489)" width="16" height="16" id="id_107" style="fill: rgb(255, 255, 255);"></rect>
<rect x="373.4" y="91.9" transform="matrix(0.3516 -0.9362 0.9362 0.3516 153.768 421.8272)" width="16" height="16" id="id_108" style="fill: rgb(255, 255, 255);"></rect>
<rect x="301.3" y="124.6" transform="matrix(0.3516 -0.9362 0.9362 0.3516 76.3616 375.5441)" width="16" height="16" id="id_109" style="fill: rgb(255, 255, 255);"></rect>
<rect x="369.6" y="193" transform="matrix(0.3516 -0.9361 0.9361 0.3516 56.6241 483.826)" width="16" height="16" id="id_110" style="fill: rgb(250, 250, 250);"></rect>
<rect x="395.8" y="168.7" transform="matrix(0.3516 -0.9362 0.9362 0.3516 96.4267 492.6221)" width="16" height="16" id="id_111" style="fill: rgb(252, 252, 252);"></rect>
<rect x="429.5" y="147.2" transform="matrix(0.3516 -0.9362 0.9362 0.3516 138.436 510.235)" width="16" height="16" id="id_112" style="fill: rgb(250, 250, 250);"></rect>
<path d="M38.3,254.9c2.3,8.5,9,15.1,17.6,17.1l88.5,21.1c7.9,1.9,16.2-0.3,22.1-5.9l66-62.6c6.4-6.1,9-15.1,6.7-23.6l-22-82
	c-2.3-8.5-9-15.1-17.6-17.1l-88.5-21.1c-7.9-1.9-16.2,0.3-22.1,5.9l-66,62.6c-6.4,6.1-9,15.1-6.7,23.6L38.3,254.9z M53.7,250.7
	l-21.1-78.6l84.7,20.5c1.2,0.3,2.5,0.5,3.8,0.6l22.3,83.2l-83.9-20C56.7,255.8,54.5,253.6,53.7,250.7z M223.7,205.1
	c0.8,2.8-0.1,5.9-2.2,7.9l-62.6,59.3l-22.3-83.3c1.1-0.7,2-1.5,3-2.4l63.1-60.1L223.7,205.1z M100,98.2c2-1.9,4.7-2.6,7.4-2
	l83.1,19.8l-61.9,59c-2,1.9-4.8,2.6-7.4,2L38,157L100,98.2z" id="id_113" style="fill: rgb(255, 255, 255);"></path>
<rect x="103.1" y="117.1" transform="matrix(0.9659 -0.259 0.259 0.9659 -28.608 33.0554)" width="16" height="16" id="id_114" style="fill: rgb(255, 255, 255);"></rect>
<rect x="111.4" y="148" transform="matrix(0.9659 -0.259 0.259 0.9659 -36.3326 36.2594)" width="16" height="16" id="id_115" style="fill: rgb(245, 253, 255);"></rect>
<rect x="351.9" y="58.2" transform="matrix(0.3516 -0.9362 0.9362 0.3516 171.3809 379.8179)" width="16" height="16" id="id_116" style="fill: rgb(250, 250, 250);"></rect>
<rect x="411.8" y="80.7" transform="matrix(0.3516 -0.9362 0.9362 0.3516 189.1657 450.4983)" width="16" height="16" id="id_117" style="fill: rgb(255, 255, 255);"></rect>
<rect x="381.8" y="69.4" transform="matrix(0.3516 -0.9362 0.9362 0.3516 180.2733 415.1581)" width="16" height="16" id="id_118" style="fill: rgb(250, 250, 250);"></rect>
<rect x="79.6" y="214.5" transform="matrix(0.9659 -0.259 0.259 0.9659 -54.654 30.28)" width="16" height="16" id="id_119" style="fill: rgb(255, 255, 255);"></rect>
<rect x="156.8" y="193.8" transform="matrix(0.9659 -0.259 0.259 0.9659 -46.6372 49.5728)" width="16" height="16" id="id_120" style="fill: rgb(252, 252, 252);"></rect>
<rect x="181.5" y="162.3" transform="matrix(0.9659 -0.259 0.259 0.9659 -37.6523 54.9077)" width="16" height="16" id="id_121" style="fill: rgb(242, 245, 245);"></rect>
<rect x="165.1" y="224.7" transform="matrix(0.9659 -0.259 0.259 0.9659 -54.3725 52.7913)" width="16" height="16" id="id_122" style="fill: rgb(242, 242, 242);"></rect>
<rect x="189.8" y="193.2" transform="matrix(0.9659 -0.259 0.259 0.9659 -45.3732 58.1056)" width="16" height="16" id="id_123" style="fill: rgb(245, 245, 245);"></rect>
</svg>